<svg width="178" height="68" viewBox="0 0 178 68" xmlns="http://www.w3.org/2000/svg"><title>v</title><g fill="#3CD52E" fill-rule="evenodd"><path d="M34.408 59.923L9.01 34.52l25.4-25.4 25.4 25.4-25.402 25.403zM12.34 34.52l22.068 22.07 22.07-22.07-22.07-22.07L12.34 34.52zm63.496-16.49h5.44l-6.715 7.99 7.32 8.883H76.2l-5.664-7.32h-.044v7.32h-4.387V18.03h4.386v6.96h.042l5.303-6.96zm14.657 13.942l-1.166 2.933h-4.653l6.49-16.875h4.79l6.354 16.875H97.63l-1.097-2.933h-6.04zm3.067-8.73h-.047l-1.81 5.373h3.648l-1.79-5.373zm18.08 11.662h-4.387V18.03h4.387v16.874zm18.372-3.714v3.714h-14.458l7.99-13.158h-6.626V18.03h13.966l-7.944 13.16h7.072zm10.515-9.444v2.818h4.947v3.715h-4.947v2.907h5.213v3.715h-9.6V18.03h9.6v3.715h-5.213zm11.053-3.716h4.386L164 28.345h.046V18.03h4.385v16.874h-4.383l-8.034-10.34h-.046v10.34h-4.386V18.03zM70.367 38.47l-8.55 20.656h-3.2l8.55-20.657h3.2zm3.756 1.702h6.22c4.7 0 8.573 3.69 8.573 8.435 0 4.747-3.894 8.44-8.573 8.44h-6.22V40.17zM78.51 53.33h.984c2.616 0 4.855-1.432 4.855-4.723 0-3.02-1.99-4.72-4.81-4.72h-1.03v9.443zm19.173-9.444v2.82h4.947v3.714h-4.947v2.91h5.214v3.715h-9.6V40.172h9.6v3.714h-5.214zm18.237 6.534l4.095-10.248h4.766l-7.206 16.875h-3.4l-7.096-16.875h4.77l4.072 10.25zm21.008-5.91c-.803-.67-1.832-1.117-2.907-1.117-.805 0-1.88.47-1.88 1.41 0 .985 1.187 1.365 1.948 1.612l1.122.336c2.348.695 4.16 1.88 4.16 4.613 0 1.678-.404 3.403-1.746 4.543-1.32 1.12-3.087 1.59-4.788 1.59-2.126 0-4.208-.718-5.93-1.925l1.88-3.536c1.095.962 2.394 1.746 3.893 1.746 1.03 0 2.126-.516 2.126-1.703 0-1.23-1.726-1.657-2.666-1.925-2.75-.784-4.564-1.5-4.564-4.768 0-3.424 2.44-5.662 5.82-5.662 1.702 0 3.78.54 5.28 1.387l-1.748 3.4z"/><path d="M28.8 33.178c0-1.543 1.36-2.902 3.964-2.902 2.608 0 4.112 1.25 6.352 1.25 2.278 0 2.023-2.772 4.295-2.682.92.037 3.86 1.91 3.86 2.645 0 .916-1.468 2.15-2.46 2.42-1.213.33-1.543-.037-1.618.22-.348 1.225-1.248 3.857-5.25 3.857-5.286 0-9.14-3.27-9.14-4.81z"/><path d="M42.79 29.505c-.097.153-.865-.1-1.986-.514-1.394-.512-2.532-.99-3.56-1.76-.997-.747-1.763-2.46-1.507-2.753.31-.352 2.193.79 3.27 1.47 1.688 1.062 4.01 3.197 3.782 3.56zm-3.49 2.497c.88-.147 1.36-.147 2.24.734.88.882.808 2.864 1.946 2.718 1.136-.148 3.258-1.49 4.698-.185.77.696.112 2.165-1.32 1.063-1.337-1.03-4.81 3.416-8.078.587-2.513-2.174-.367-4.77.514-4.918zm-4.26 1.138c.11.918-.955 4.187-5.103 4.627-2.4.254-3.892-.77-4.553-.11 0 0-1.984 3.708-3.6 3.415-.614-.112-.733-.882-.437-1.286.294-.404 1.358.073 1.834-.734.477-.81.333-3.085 2.02-3.12 1.69-.038 2.133-.443 2.683-1.434.55-.99 1.433-2.826 4.003-3.194 2.22-.316 3.047.92 3.156 1.837z"/><path d="M26.743 30.533c-.01-.77.47-2.057.844-2.057s.174.982 1.224 1.106c1.826.218 2.636 1.403 2.156 2.564-.704 1.716-4.186 1.177-4.222-1.613z"/></g></svg>