<svg width="28" height="28" viewBox="0 0 28 28" xmlns="http://www.w3.org/2000/svg"><title>z</title><g fill-rule="evenodd"><path d="M14.09 27.826L.32 14.052 14.09.28l13.774 13.772L14.09 27.826zM2.127 14.052L14.09 26.02l11.968-11.97L14.09 2.087 2.127 14.052z"/><path d="M11.05 13.325c0-.837.737-1.574 2.15-1.574 1.413 0 2.23.68 3.444.68 1.234 0 1.096-1.503 2.328-1.454.498.02 2.09 1.035 2.09 1.434 0 .497-.794 1.166-1.333 1.313-.66.18-.837-.02-.878.12-.19.662-.677 2.09-2.847 2.09-2.866 0-4.956-1.772-4.956-2.608z"/><path d="M18.635 11.333c-.052.083-.468-.055-1.076-.278-.758-.28-1.375-.537-1.933-.956-.54-.406-.955-1.335-.817-1.494.17-.19 1.19.428 1.774.796.915.577 2.174 1.734 2.05 1.93zm-1.892 1.354c.478-.08.737-.08 1.215.398.477.478.438 1.553 1.055 1.474.616-.08 1.766-.81 2.547-.103.418.38.06 1.175-.716.578-.725-.558-2.608 1.852-4.38.318-1.362-1.18-.198-2.587.28-2.667zm-2.31.618c.06.497-.517 2.27-2.766 2.508-1.302.138-2.11-.418-2.47-.06 0 0-1.074 2.01-1.95 1.852-.334-.06-.398-.478-.237-.697.16-.22.736.04.993-.4.258-.437.18-1.67 1.095-1.69.916-.02 1.156-.24 1.455-.778.298-.537.776-1.532 2.17-1.73 1.203-.173 1.652.497 1.71.995z"/><path d="M9.935 11.89c-.005-.417.255-1.114.457-1.114.203 0 .095.532.664.6.99.117 1.428.76 1.168 1.39-.382.93-2.27.638-2.29-.875z"/></g></svg>