<svg width="121" height="40" viewBox="0 0 121 40" xmlns="http://www.w3.org/2000/svg"><title>Slice 1</title><g fill="#FFF" fill-rule="evenodd"><path d="M19.818 38.868L.708 19.755 19.82.645l19.112 19.11L19.82 38.868zM3.215 19.755L19.818 36.36l16.605-16.605L19.818 3.15 3.215 19.756zM50.988 7.348h4.092l-5.05 6.01 5.505 6.685H51.26l-4.262-5.506h-.033v5.506h-3.3V7.348h3.3v5.236h.033l3.99-5.236zM62.015 17.84l-.877 2.205h-3.5L62.52 7.35h3.603l4.78 12.695h-3.517l-.826-2.206h-4.545zm2.308-6.57h-.036l-1.362 4.043h2.745l-1.347-4.043zm13.603 8.774h-3.3V7.348h3.3v12.696zM91.75 17.25v2.794H80.87l6.012-9.9h-4.985V7.35h10.507l-5.976 9.9h5.32zm7.91-7.106v2.12h3.722v2.796H99.66v2.188h3.922v2.795H96.36V7.348h7.222v2.795H99.66zm8.315-2.796h3.3l6.046 7.762h.035V7.348h3.3v12.696h-3.3l-6.044-7.78h-.034v7.78h-3.3V7.348zM46.873 22.726L40.44 38.27h-2.408l6.433-15.544h2.408zm2.827 1.282h4.678c3.538 0 6.45 2.777 6.45 6.346 0 3.57-2.93 6.35-6.45 6.35h-4.68V24.007zm3.298 9.9h.742c1.968 0 3.653-1.078 3.653-3.554 0-2.272-1.497-3.552-3.62-3.552h-.775v7.106zm14.427-7.106v2.12h3.722v2.796h-3.722v2.19h3.922v2.795h-7.222V24.008h7.222v2.794h-3.922zm13.72 4.918l3.082-7.712h3.586L82.39 36.704h-2.56l-5.337-12.696h3.587l3.065 7.71zm15.807-4.447c-.605-.505-1.38-.842-2.188-.842-.606 0-1.415.356-1.415 1.064 0 .74.89 1.026 1.463 1.212l.844.253c1.768.52 3.13 1.413 3.13 3.47 0 1.26-.303 2.56-1.313 3.416-.993.842-2.323 1.195-3.602 1.195-1.6 0-3.166-.54-4.462-1.446l1.415-2.66c.825.723 1.802 1.313 2.93 1.313.775 0 1.6-.388 1.6-1.28 0-.927-1.297-1.248-2.005-1.45-2.07-.59-3.434-1.127-3.434-3.587 0-2.577 1.836-4.26 4.38-4.26 1.28 0 2.842.405 3.97 1.043l-1.314 2.56z"/><path d="M15.598 18.745c0-1.16 1.023-2.183 2.983-2.183 1.964 0 3.096.94 4.78.94 1.715 0 1.523-2.085 3.233-2.017.69.028 2.9 1.436 2.9 1.99 0 .69-1.102 1.62-1.85 1.823-.91.25-1.16-.03-1.216.165-.262.92-.94 2.902-3.95 2.902-3.977 0-6.878-2.46-6.878-3.62z"/><path d="M26.124 15.982c-.072.115-.65-.076-1.494-.386-1.05-.387-1.905-.746-2.678-1.326-.75-.562-1.326-1.85-1.134-2.072.233-.264 1.65.595 2.46 1.106 1.27.8 3.017 2.406 2.846 2.678zM23.5 17.86c.66-.11 1.02-.11 1.685.553.662.664.607 2.155 1.463 2.045.855-.11 2.45-1.12 3.535-.14.58.526.084 1.63-.994.802-1.007-.774-3.62 2.57-6.08.442-1.89-1.637-.275-3.59.388-3.7zm-3.206.858c.083.69-.72 3.15-3.84 3.48-1.807.19-2.928-.58-3.425-.084 0 0-1.495 2.792-2.71 2.57-.463-.083-.55-.663-.33-.966.22-.304 1.02.054 1.38-.553.358-.608.25-2.32 1.52-2.348 1.27-.028 1.603-.332 2.017-1.078.414-.747 1.078-2.128 3.01-2.405 1.672-.238 2.294.69 2.376 1.382z"/><path d="M14.05 16.756c-.006-.58.354-1.548.636-1.548.28 0 .13.74.92.832 1.373.164 1.983 1.056 1.622 1.93-.53 1.29-3.15.885-3.177-1.214z"/></g></svg>