<svg width="76" height="76" viewBox="0 0 76 76" xmlns="http://www.w3.org/2000/svg"><title>Slice 1</title><g fill="#3CD52E" fill-rule="evenodd"><path d="M38.433 75.894L.873 38.327 38.433.765 76 38.327 38.433 75.894zM5.8 38.327l32.633 32.64 32.638-32.64L38.435 5.692 5.8 38.327z"/><path d="M30.138 36.343c0-2.282 2.01-4.29 5.863-4.29 3.86 0 6.084 1.845 9.396 1.845 3.368 0 2.99-4.097 6.35-3.963 1.36.054 5.705 2.822 5.705 3.91 0 1.358-2.17 3.184-3.64 3.584-1.79.487-2.277-.06-2.39.323-.514 1.81-1.845 5.703-7.762 5.703-7.818 0-13.52-4.834-13.52-7.114z"/><path d="M50.826 30.912c-.14.226-1.277-.15-2.935-.76-2.06-.76-3.743-1.465-5.263-2.606-1.474-1.104-2.606-3.638-2.228-4.07.456-.52 3.242 1.168 4.835 2.17 2.495 1.573 5.93 4.73 5.592 5.266zm-5.158 3.692c1.3-.217 2.01-.217 3.314 1.085 1.3 1.303 1.192 4.234 2.875 4.02 1.68-.22 4.818-2.206 6.948-.275 1.14 1.032.165 3.204-1.954 1.575-1.974-1.52-7.11 5.052-11.943.87-3.716-3.218-.542-7.06.762-7.276zM39.37 36.29c.16 1.355-1.415 6.19-7.55 6.84-3.55.375-5.755-1.14-6.732-.165 0 0-2.934 5.486-5.323 5.052-.91-.166-1.085-1.304-.647-1.9.434-.598 2.008.106 2.712-1.087.703-1.196.49-4.562 2.984-4.616 2.5-.054 3.154-.652 3.968-2.12.814-1.463 2.12-4.177 5.92-4.722 3.282-.467 4.505 1.36 4.667 2.717z"/><path d="M27.097 32.432c-.013-1.14.695-3.042 1.248-3.042.554 0 .258 1.452 1.81 1.636 2.698.32 3.896 2.074 3.186 3.79-1.04 2.54-6.19 1.742-6.242-2.384z"/></g></svg>