<svg width="58" height="58" viewBox="0 0 58 58" xmlns="http://www.w3.org/2000/svg"><title>Artboard 1</title><g fill="#3CD52E" fill-rule="evenodd"><path d="M28.396 54.124L2.6 28.324l25.797-25.8 25.8 25.8-25.8 25.8zm0-3.385L50.812 28.32 28.396 5.91 5.983 28.322 28.396 50.74z"/><path d="M22.7 26.96c0-1.567 1.38-2.947 4.026-2.947 2.65 0 4.177 1.268 6.452 1.268 2.313 0 2.054-2.812 4.362-2.72.932.037 3.917 1.938 3.917 2.686 0 .932-1.49 2.186-2.5 2.46-1.23.337-1.564-.038-1.64.224-.355 1.242-1.27 3.916-5.333 3.916-5.37 0-9.285-3.32-9.285-4.886z"/><path d="M36.908 23.23c-.097.155-.877-.103-2.016-.522-1.416-.522-2.572-1.006-3.616-1.79-1.012-.758-1.79-2.498-1.53-2.796.314-.357 2.227.803 3.32 1.492 1.715 1.08 4.073 3.248 3.842 3.616zm-3.543 2.536c.894-.15 1.38-.15 2.276.745.895.898.82 2.91 1.977 2.763 1.154-.15 3.31-1.514 4.772-.188.782.71.112 2.2-1.343 1.082-1.357-1.045-4.885 3.47-8.204.596-2.552-2.21-.372-4.847.523-4.996zm-4.325 1.157c.11.93-.972 4.25-5.185 4.698-2.44.26-3.953-.78-4.624-.11 0 0-2.013 3.767-3.654 3.47-.624-.115-.745-.897-.444-1.307.3-.41 1.38.074 1.863-.746.483-.82.336-3.133 2.05-3.17 1.717-.037 2.166-.448 2.725-1.455.56-1.005 1.455-2.87 4.065-3.243 2.255-.32 3.095.932 3.206 1.865z"/><path d="M20.61 24.274c-.008-.782.478-2.09.858-2.09s.177.998 1.243 1.124c1.855.22 2.678 1.425 2.19 2.604-.715 1.743-4.25 1.196-4.29-1.638z"/></g></svg>