<svg width="29" height="24" viewBox="0 0 29 24" xmlns="http://www.w3.org/2000/svg"><title>Slice 1</title><path d="M8.403 0C3.63 3.423 0 9.233 0 15.56c0 5.084 3.008 7.885 6.432 7.885 3.112 0 5.498-2.49 5.498-5.498 0-3.113-2.075-5.29-4.98-5.29-.518 0-1.244.103-1.348.103.31-3.32 3.32-7.47 6.64-9.648L8.4 0zM25 0c-4.77 3.423-8.4 9.233-8.4 15.56 0 5.084 3.008 7.885 6.432 7.885 3.112 0 5.6-2.49 5.6-5.498 0-3.113-2.177-5.29-5.082-5.29-.518 0-1.244.103-1.348.103.415-3.32 3.32-7.47 6.64-9.648L25 0z" fill="#EEE" fill-rule="evenodd"/></svg>