<svg width="46" height="46" viewBox="0 0 46 46" xmlns="http://www.w3.org/2000/svg"><title>Slice 1</title><g fill="none" fill-rule="evenodd"><path d="M45.877 38.23c0 4.206-3.44 7.647-7.646 7.647H7.648C3.44 45.877 0 42.437 0 38.23V7.647C0 3.44 3.44 0 7.646 0H38.23c4.206 0 7.647 3.44 7.647 7.646V38.23z" fill="#B3B3B3"/><path d="M12.466 9.97h13.006c2.4 0 4.325.547 5.772 1.65 1.447 1.1 2.174 2.758 2.174 4.984 0 1.35-.33 2.504-.99 3.463-.66.96-1.604 1.71-2.833 2.234v.077c1.65.353 2.9 1.132 3.748 2.34.847 1.213 1.275 2.728 1.275 4.557 0 1.05-.188 2.03-.563 2.938a5.938 5.938 0 0 1-1.76 2.363c-.803.66-1.823 1.184-3.075 1.574-1.252.39-2.736.583-4.46.583H12.466V9.97zm4.685 11.207H24.8c1.125 0 2.062-.315 2.812-.96.748-.644 1.123-1.56 1.123-2.758 0-1.35-.337-2.304-1.012-2.85-.673-.548-1.647-.825-2.922-.825H17.15v7.39zm0 11.73h8.286c1.424 0 2.533-.366 3.313-1.108.786-.737 1.183-1.786 1.183-3.135 0-1.327-.39-2.34-1.184-3.06-.796-.72-1.89-1.063-3.314-1.063H17.15v8.365z" fill="#FFF"/></g></svg>