<svg width="51" height="51" viewBox="0 0 51 51" xmlns="http://www.w3.org/2000/svg"><title>Slice 1</title><g fill="#B3B3B3" fill-rule="evenodd"><path d="M25.56.17C11.513.17.083 11.556.083 25.643c0 11.26 7.297 20.793 17.42 24.167 1.265.254 1.73-.547 1.73-1.222 0-.59-.043-2.615-.043-4.724-7.085 1.56-8.56-2.994-8.56-2.994-1.14-2.953-2.827-3.712-2.827-3.712-2.32-1.56.17-1.56.17-1.56 2.57.168 3.92 2.615 3.92 2.615 2.28 3.88 5.948 2.783 7.424 2.11.21-1.646.886-2.785 1.603-3.418-5.652-.632-11.6-2.826-11.6-12.57 0-2.782 1.013-5.06 2.616-6.83-.253-.634-1.14-3.25.253-6.75 0 0 2.15-.675 7 2.615a24.664 24.664 0 0 1 6.37-.843c2.15 0 4.343.295 6.367.843 4.85-3.29 7.002-2.615 7.002-2.615 1.39 3.5.505 6.116.252 6.75 1.645 1.77 2.615 4.048 2.615 6.83 0 9.786-5.947 11.938-11.64 12.57.927.802 1.728 2.32 1.728 4.724 0 3.414-.042 6.156-.042 7 0 .674.464 1.476 1.73 1.223C43.695 46.48 50.99 36.947 50.99 25.686 51.035 11.6 39.647.17 25.56.17z"/><path d="M9.743 36.736c-.042.127-.253.17-.422.085-.167-.083-.293-.25-.21-.38.043-.124.254-.166.423-.082.17.084.253.253.21.38zm1.012 1.18c-.126.128-.38.044-.506-.125-.17-.167-.213-.42-.086-.546.126-.127.337-.043.506.126.212.168.212.42.085.547zm1.012 1.434c-.168.128-.42 0-.548-.21-.17-.21-.17-.506 0-.59.167-.126.42 0 .546.21.17.212.17.507 0 .59zm1.393 1.435c-.127.17-.422.127-.676-.084-.21-.21-.295-.504-.126-.63.126-.17.422-.127.675.084.21.17.253.464.126.632zm1.897.845c-.042.21-.337.294-.632.21-.296-.084-.464-.338-.422-.506.042-.21.337-.295.633-.21.295.04.463.294.42.505zm2.067.126c0 .21-.253.38-.548.38-.296 0-.55-.17-.55-.38s.254-.38.55-.38c.295 0 .548.17.548.38zm1.94-.338c.042.21-.17.422-.464.464-.295.042-.548-.084-.59-.295-.042-.21.168-.422.464-.464.295-.042.548.084.59.295z"/></g></svg>