<svg width="55" height="61" viewBox="0 0 55 61" xmlns="http://www.w3.org/2000/svg"><title>Slice 1</title><path d="M5.5 0C2.5 0 0 2.4 0 5.5v49.9c0 3 2.5 5.5 5.5 5.5h44c3.1 0 5.5-2.4 5.5-5.5V5.5c0-3-2.5-5.5-5.5-5.5h-44zm46.4 55.3c0 1.4-1.1 2.4-2.5 2.4h-44c-1.4 0-2.5-1.1-2.5-2.4V5.5C3.1 4.1 4.1 3 5.5 3h44C50.9 3 52 4.1 52 5.4v49.9h-.1zm-38.1-3.6l6.9-6.1-6.9-6.1v12.2zm24.8-24.6c-1.2-1.2-3.5-2.7-7.4-2.7-4.1 0-8.4 1.1-11.5 2.1V9.1h-6.1v26.3l4.3-2s7-3.2 13.2-3.2c3.1 0 3.8 1.7 3.8 3.2v18.2H41V33.4c.2-.4.2-3.8-2.4-6.3zM30.5 19h6.1c2.8-3.2 4.1-6.4 4.6-9.9h-6.1c-.6 3.5-2.2 6.7-4.6 9.9z" fill="#B3B3B3" fill-rule="evenodd"/></svg>