<svg width="41" height="58" viewBox="0 0 41 58" xmlns="http://www.w3.org/2000/svg"><title>Slice 1</title><path d="M3.835.037h2.602V2.6h2.38V.038h2.603v7.78H8.818V5.215h-2.38v2.602H3.834V.037zM14.84 2.614h-2.297V.037h7.182v2.577H17.43v5.203h-2.603l.012-5.203zM20.873.037h2.71l1.674 2.735 1.66-2.735h2.713v7.78h-2.59V3.97l-1.794 2.77h-.05l-1.794-2.77v3.847h-2.54V.037h.013zm10.052 0h2.6v5.215h3.665v2.565h-6.265V.037zm-30.84 11.2L3.81 52.97l16.71 4.64 16.72-4.628 3.712-41.746H.085zm9.942 34.612l-.733-8.22h5.142l.38 4.26 5.703 1.54h.01l5.704-1.54.598-6.643H9.074L7.694 19.76H33.34l-.464 5.12h-19.59l.465 5.238h18.663l-1.405 15.72-10.49 2.918h-.014l-10.48-2.907z" fill="#B3B3B3" fill-rule="evenodd"/></svg>