<svg width="70" height="70" viewBox="0 0 70 70" xmlns="http://www.w3.org/2000/svg"><title>Slice 1</title><g fill="#B3B3B3" fill-rule="evenodd"><circle cx="14" cy="14" r="13.9" transform="translate(21 21)"/><path d="M63.3 11.5c0-2.6-2.1-4.8-4.8-4.8-1.2 0-2.3.4-3.1 1.2C49.7 3.6 42.7 1 35 1 16.3 1 1 16.3 1 35s15.2 34 34 34 34-15.2 34-34c0-7.7-2.5-14.7-6.8-20.4.7-.8 1.1-1.9 1.1-3.1zM2.2 35C2.2 16.9 16.9 2.2 35 2.2c7.4 0 14.2 2.4 19.6 6.5-.6.8-.9 1.7-.9 2.8 0 2.6 2.1 4.8 4.8 4.8 1 0 2-.3 2.8-.9 4.1 5.5 6.5 12.3 6.5 19.6 0 18.1-14.7 32.8-32.8 32.8C16.9 67.8 2.2 53.1 2.2 35z"/><path d="M35 69.5C16 69.5.5 54 .5 35S16 .5 35 .5c7.4 0 14.5 2.3 20.4 6.7.9-.7 2-1 3.1-1 2.9 0 5.3 2.4 5.3 5.3 0 1.1-.4 2.2-1 3.1 4.4 6 6.7 13 6.7 20.4C69.5 54 54 69.5 35 69.5zm0-68C16.6 1.5 1.5 16.5 1.5 35s15 33.5 33.5 33.5 33.5-15 33.5-33.5c0-7.3-2.3-14.3-6.7-20.1l-.2-.3.3-.3c.7-.8 1-1.8 1-2.8 0-2.4-1.9-4.3-4.3-4.3-1 0-2 .4-2.8 1l-.3.3-.3-.2C49.3 3.9 42.3 1.5 35 1.5zm0 66.8c-18.4 0-33.3-15-33.3-33.3C1.7 16.7 16.6 1.7 35 1.7c7.3 0 14.2 2.3 20 6.6l.4.3-.3.4c-.5.7-.8 1.6-.8 2.5 0 2.4 1.9 4.3 4.3 4.3.9 0 1.7-.3 2.5-.8l.4-.3.3.4c4.3 5.8 6.6 12.7 6.6 19.9-.1 18.4-15 33.3-33.4 33.3zm0-65.6C17.2 2.7 2.7 17.2 2.7 35c0 17.8 14.5 32.3 32.3 32.3 17.8 0 32.3-14.5 32.3-32.3 0-6.9-2.1-13.4-6.2-19-.8.5-1.7.7-2.6.7-2.9 0-5.3-2.4-5.3-5.3 0-.9.2-1.8.7-2.6-5.5-4-12-6.1-18.9-6.1z"/></g></svg>