<svg width="45" height="45" viewBox="0 0 45 45" xmlns="http://www.w3.org/2000/svg"><title>Slice 1</title><g fill="none" fill-rule="evenodd"><path fill="#B3B3B3" d="M0 0h44.856v44.856H0z"/><path d="M30.132 35.045c.904 1.473 2.08 2.563 4.158 2.563 1.744 0 2.862-.876 2.862-2.08 0-1.445-1.146-1.957-3.07-2.797l-1.052-.455c-3.04-1.296-5.063-2.92-5.063-6.35 0-3.162 2.407-5.57 6.173-5.57 2.678 0 4.607.934 5.995 3.376l-3.282 2.108c-.72-1.295-1.502-1.808-2.713-1.808-1.23 0-2.015.783-2.015 1.808 0 1.268.784 1.78 2.592 2.564l1.054.448c3.582 1.538 5.604 3.105 5.604 6.622 0 3.795-2.983 5.874-6.984 5.874-3.916 0-6.444-1.866-7.683-4.308l3.425-1.993zm-14.888.363c.662 1.175 1.267 2.17 2.713 2.17 1.388 0 2.257-.54 2.257-2.647V20.6h4.215v14.39c0 4.364-2.557 6.35-6.295 6.35-3.375 0-5.333-1.744-6.323-3.85l3.432-2.08z" fill="#FFF"/></g></svg>