<svg width="70" height="20" viewBox="0 0 70 20" xmlns="http://www.w3.org/2000/svg"><title>Slice 1</title><g fill="none" fill-rule="evenodd"><path fill="#000" d="M59.448 5.358l.108.488c.037.144-.054.252-.198.252"/><path d="M50.247 4.53a4.353 4.353 0 0 0-.09.413l-1.01 4.727 1.064-4.98.038-.16zM20.01 7.686l-.543 1.984.542-1.984z" fill="#B3B3B3"/><path d="M59.556 5.846l-.288-1.227c-.235-.886-.884-1.32-2.346-1.32H50.77c-.144 0-.29.073-.307.2l-2.327 11.06a.62.62 0 0 0-.018.306c.018.072.29.054.433.054h2.13c.145 0 .398.02.47-.017.07-.036.108-.235.144-.38l.758-3.878.92-4.294a.326.326 0 0 1 .308-.25h6.08c.144 0 .235-.11.198-.253" fill="#B3B3B3"/><path d="M68.217 1.37H65.51c-.144 0-.324.146-.397.272l-4.745 6.964c-.072.108-.18.108-.198-.018l-.343-1.534a.326.326 0 0 0-.307-.252h-3.05c-.143 0-.215.108-.18.252l1.372 4.782c.036.144.036.36 0 .505l-.63 2.42c-.037.144.053.18.197.18h3.01c.145 0 .29-.036.326-.18l.63-2.454c.037-.145.128-.325.218-.433l7.74-10.248c.09-.108.072-.253-.072-.253h-.866zm-31.7 1.95h-2.742c-.145 0-.29.054-.307.18l-.902 4.258-.902 4.078c-.036.144-.163.126-.307.126h-1.804c-1.786 0-1.588-1.137-1.21-2.815 0-.018 1.156-5.63 1.156-5.63.016-.143-.075-.18-.2-.18h-2.617c-.144 0-.29.055-.307.18l-1.046 5.63c-.522 3.03-.54 5.72 2.978 5.81h5.575c.144 0 .288-.054.306-.18l1.19-5.648 1.19-5.667c-.054-.018 0-.144-.054-.144zm-27.37-.018h-2.94c-.145 0-.29.036-.307.18l-.523 2.29c-.037.146.054.254.198.254H8.39a.326.326 0 0 0 .306-.27l.505-2.31s.038-.144-.052-.144zm-3.79 3.5c-.143 0-.287.108-.305.252l-.397 1.75-.884 4.06s-.467 2.147-.52 2.29c0 0-.398 1.553-1.355 1.5-.433-.037-.938-.128-.938-.128-.27-.072-.288.2-.325.325L.056 19.38c-.036.144.054.27.2.27 0 0 1.262.18 2.164.18h.144c2.22 0 3.374-1.298 4.132-4.834l.884-4.096.83-3.807c.036-.143-.055-.27-.2-.27m35.253-3.536c-4.96 0-6.134 3.067-6.802 6.098-.647 3.103-.593 5.54 4.53 5.54h4.69c.145 0 .27-.128.307-.272l.506-1.967c.036-.144-.073-.18-.2-.18h-4.618c-1.678 0-2.273-.523-2.22-1.678 0-.126.146-.47.29-.47h7.108c.307 0 .325-.18.325-.18.74-3.247.776-6.89-3.915-6.89m1.317 4.87c0 .162-.487.126-.487.126l-3.86-.034c-.127 0-.18-.18-.18-.325 0 0 .017-.16.017-.197.306-1.028 1.19-1.624 2.598-1.624 1.587 0 1.93.793 1.93 1.66m-22.75 3.967s1.39-3.374 1.695-5.322c.433-2.616-.866-6.387-5.918-6.387-5.015 0-7.18 3.608-8.028 7.542-.83 3.95.252 7.397 5.25 7.36h7.614c.146 0 .29-.108.326-.252l.65-2.436c.036-.144-.054-.252-.2-.252H22.21c-.127 0-.2-.072-.18-.18.017-.02.017-.037.017-.073zM19.43 9.67l-.576 1.95c-.036.143-.2.234-.343.234h-2.94c-2.236 0-2.777-1.732-2.236-4.312.54-2.635 1.624-4.258 3.825-4.44 3.01-.232 3.624 1.898 2.885 4.33L19.43 9.67z" fill="#B3B3B3"/></g></svg>