<svg width="55" height="57" viewBox="0 0 55 57" xmlns="http://www.w3.org/2000/svg"><title>Slice 1</title><g fill="#B3B3B3" fill-rule="evenodd"><path d="M29.762 33.206a.96.96 0 0 1 .31.07 13.55 13.55 0 0 0-.414-1.28c-.45-1.247-.138-.59-.865-2.147-.97-2.147-2.214-4.915-.83-11.316.38-1.8 1.384-2.733 2.664-3.114.796-.24 1.695-.276 2.595-.137.865.138 1.695.38 2.456.692.485.207.97.45 1.35.692-.312-3.737-1.938-12.664-10.865-12.49-7.404.103-11.59 4.982-13.493 8.476-.485.865-.83 1.66-1.038 2.25-.035.034-.035.103-.035.138 4.394-.45 6.124 1.074 6.505 3.358.52 3.252-2.11 7.958-3.46 10.345-.312.554-.554 1.004-.623 1.177-.52 1.28-1.178 2.11-1.697 2.732-.173.208-.312.38-.416.554 1.004.276 2.457.83 2.32 3.77.068.866.345 3.323.656 5.71.242 1.938.52 3.91.692 5.052.277 1.557.692 2.664 1.453 3.425.76.796 1.902 1.315 3.597 1.66 1.938.416 3.15 0 3.945-.657.83-.692 1.245-1.695 1.522-2.352.242-.658.45-2.353.554-4.67.104-2.32.138-5.157.07-8.03 0-.62-.036-1.175.172-1.763.242-.62.657-1.21 1.142-1.59.484-.38 1.176-.59 1.73-.553z"/><path d="M31.077 36.147c-.346-.45-.692-.83-1.108-1.246-.14-.136-.244-.136-.348-.17-.207-.036-.52.103-.692.24-.24.174-.448.486-.587.83-.104.348-.173.797.07 1.11 1.107 1.52 2.456 2.18 3.702 2.386 1.28.208 2.49 0 3.217-.173a4.695 4.695 0 0 0 1.038-.45c-.207-.103-.588-.207-1.107-.346-2.94-.588-3.218-.968-4.186-2.18zM11.39 34.66c-.14-.036-.277-.07-.38-.105-1.835 1.384-4.914.796-6.92.415.483.45 1.28 1.004 2.213 1.42.9.414 2.353.69 3.702.795.762.034 1.488.034 2.042-.104.346-.067.588-.137.657-.206.07-1.834-.76-2.076-1.315-2.214zm.83-4.5c.138-.24.277-.553.415-.83.104-.276.38-.726.692-1.35 1.246-2.248 3.702-6.642 3.287-9.376-.242-1.522-1.626-2.49-5.155-2.04 0 .795.1 1.487.24 2.213.104.796.242 1.592.277 2.56.034.935-.104 1.904-.208 2.907-.243 1.903-.485 3.945.45 5.917zm1.142-12.905c.242-.07.553-.07.9-.035.345.07.657.14.864.277.242.14.346.312.346.485 0 .242-.242.484-.553.657-.28.136-.556.206-.798.17-.346-.034-.658-.207-.934-.483-.21-.243-.347-.52-.347-.658.07-.208.243-.347.52-.416z"/><path d="M11.147 31.683c.035-.034.07-.07.07-.104-1.592-2.63-1.28-5.157-1.004-7.51.104-.934.208-1.834.208-2.664a15.61 15.61 0 0 0-.275-2.387c-.14-.936-.277-1.87-.242-2.94v-.07c-.035-.278.07-.867.31-1.593.243-.658.59-1.523 1.143-2.457 1.453-2.663 4.117-6.02 8.338-7.888-2.04-.415-5.293-.76-8.546.173-2.318.658-4.602 2.007-6.505 4.395-1.107 1.418-.9 5.328.45 10.103 1.142 4.152 3.15 8.927 5.917 13.252a.44.44 0 0 1 .137-.312z"/><path d="M33.118 2.86a10.317 10.317 0 0 0-2.664-1.14c-1.28-.38-2.734-.59-4.325-.554-.798 0-1.594.07-2.424.138-.588.07-1.142.14-1.66.243-1.94-.554-6.47-1.557-11.038-.45-3.115.726-6.298 2.387-8.893 5.674C.42 8.95.42 13.9 2.013 19.61a53.194 53.194 0 0 0 5.674 13.11c-.588-.137-1.522-.345-2.975-.656-1.142-.242-2.042-.14-2.665.173C.94 32.79.457 33.655.525 34.832c.035.588.277 1.176.657 1.73.658.9 2.076 2.007 3.772 2.802.83.38 1.903.658 3.01.865 1.107.17 2.284.275 3.252.206h.104l.38-.035c0 .105.035.174.035.278.035.207.035.31.035.414.138 5.78 1.073 9.1 2.526 11.176 1.66 2.387 3.77 3.045 6.124 3.53 6.055 1.28 7.3-2.596 8.027-4.775.035-.14.07-.243.138-.346.312-.832.52-1.87.623-3.08.14-1.143.173-2.284.242-3.46.035-.347.035-.83.035-1.316 0-.345 0-.656-.035-.967.692.31 1.42.52 2.11.622 1.835.312 3.496.035 4.5-.242.83-.207 1.902-.692 2.56-1.315l.31-.31c.554.45 1.143.796 1.696.97 2.18.795 4.083-.036 5.744-1.87 1.21-1.314 2.283-3.287 3.218-5.536 2.733-6.504 4.567-15.88 4.67-18.2 1.004-19.34-16.4-14.74-21.14-13.113zm19.618 12.942c-.104 2.214-1.868 11.35-4.532 17.68-.9 2.11-1.87 3.91-2.94 5.087-1.247 1.347-2.596 1.97-4.084 1.45-.692-.24-1.384-.76-2.076-1.556-1.903-2.284-3.633-4.152-4.256-4.844-.727.38-1.488.658-2.318.762-.242.035-.52.07-.76.07v.103c.172.208.38.415.552.657.692.865.9 1.142 3.287 1.627 1.07.205 1.73.517 2.074.863.38.346.485.726.415 1.107-.07.347-.243.624-.52.9-.45.416-1.245.796-1.868.935-.865.207-2.284.484-3.875.207-1.177-.207-2.422-.692-3.564-1.73.035 2.18-.035 4.29-.104 6.09-.105 2.456-.347 4.36-.658 5.155-.346.83-.865 2.042-1.938 2.976-1.107.934-2.768 1.522-5.26.968-2.006-.413-3.39-1.07-4.393-2.11-1.002-1.036-1.52-2.385-1.867-4.254-.173-1.107-.45-3.114-.727-5.12-.208-1.627-.38-3.218-.52-4.36-.137.034-.31.104-.483.138-.692.14-1.557.173-2.422.14-1.522-.105-3.183-.417-4.255-.936-1.453-.692-2.664-1.59-3.183-2.318-.208-.312-.346-.624-.38-.9-.036-.485.172-.865.622-1.073.346-.173.9-.208 1.695-.035 4.047.83 5.26.312 5.64-.034-3.046-4.637-5.295-9.827-6.54-14.36-1.452-5.258-1.555-9.686-.17-11.485 2.11-2.7 4.705-4.187 7.3-4.914 3.91-1.14 7.75-.59 9.86-.07.174.035.278.07.382.104.034.035.83.242 1.418.38a18.787 18.787 0 0 1 3.84-.484c2.838-.035 5.018.657 6.713 1.833C35.75 3.38 53.64-2.537 52.74 15.803z"/><path d="M34.294 5.595c4.602 4.532 4.395 12.63 4.395 12.698 0 .208 0 .45-.037.796-.07 1.28-.208 3.7.138 6.4.105.656.105 1.35.036 1.97a8.034 8.034 0 0 1-2.04 4.637c-.21.243-.45.45-.693.658.76.796 2.422 2.595 4.152 4.74.484.588.968.934 1.384 1.107.794.277 1.59-.138 2.386-1.038.97-1.072 1.868-2.733 2.664-4.67 2.596-6.16 4.326-14.983 4.43-17.162C51.906.922 38.446 4.21 34.294 5.595z"/><path d="M37.27 25.663c-.415-2.872-.242-5.398-.173-6.678 0-.242.035-.45.035-.692 0-.035-.865-.415-2.007-.9a8.673 8.673 0 0 0-2.11-.588c-.693-.104-1.35-.104-1.904.07-.724.242-1.347.83-1.59 1.972-1.28 5.916-.172 8.407.727 10.38.554 1.21.623 1.522.9 2.214.173.52.346 1.005.484 1.49.243 0 .486-.035.693-.07 1.28-.172 2.457-.83 3.356-1.833a6.41 6.41 0 0 0 1.66-3.737c.035-.52 0-1.074-.07-1.627zm-4.533-6.747c-.242.242-.588.484-.968.52-.383.068-.764-.07-1.04-.278-.277-.208-.485-.45-.52-.657-.034-.24.14-.45.416-.62.52-.278 1.28-.38 1.868-.278.415.105.554.312.588.52.035.277-.103.554-.346.796z"/></g></svg>