<svg width="41" height="52" viewBox="0 0 41 52" xmlns="http://www.w3.org/2000/svg"><title>Slice 1</title><g fill="#B3B3B3" fill-rule="evenodd"><path d="M7.794 18.927l-3.076-1.325-1.035 3.035 3.145 1.173.966-2.883zm14.14 7.807l2.883 1.325-.29-2.058-2.635-1.42.042 2.15zm7.118-24.83l-.497-1.67-.193-.027L25.88.014l.772 1.835 2.4.053zm-15.63 7.56l-2.455-1.82-1.71 2.316 2.703 1.683 1.462-2.18zm9.643 8.096l-.552 1.877 1.987 1.82.483-1.75-1.918-1.946zM27.3 36.377l-.91-2.193-3.353-.635.883 2.536 3.38.29z"/><path d="M40.64 7.89c-1.035-.993-2.056-1.834-3.104-2.524-.014 0-.014-.014-.028-.014-.18-.11-.358-.234-.538-.344C35.273 4 33.44 3.352 31.26 3.02h-.015l-.565-.082h-.028c-.165-.013-.317-.04-.483-.055-.07-.014-.14-.014-.21-.014-.11-.015-.22-.015-.33-.03-.07 0-.15-.013-.22-.013a7.024 7.024 0 0 0-.54-.028c-.136 0-.29-.014-.426-.014h-.468c-8.015.206-21.19 8.208-23.148 37.108H24.17c-4.347-11.243-3.836-19.727-.857-25.466 1.587-3.05 3.45-5.063 5.477-6.208a9.21 9.21 0 0 1 4.62-1.228c2.112 0 4.29.676 6.416 1.876.096.055.207.11.303.18.205-.525.51-1.16.51-1.16z"/><path d="M25.05 12.926l1.478 2.014.896-1.324-1.27-1.987-1.103 1.295zM17.45 2.91l1.546 1.697 1.945-1.255-1.57-2.055-2.208 1.31.29.304zM.18 33.19l-.11.428 3.75.428.83-3.49-3.602-.635-.87 3.27zM37.288 4.345l.703.442.085-.773-1.642-1.172-.593-.428V3.45l1.448.895zm-1.614 4.8l1.64.07.015-.76-1.713-.344.056 1.037zm-5.56-.385l-.69.262.732 1.71 1.324-.717-.483-1.586-.883.33zM8.11 46.654v-1.42c0-.76-.757-2.125-2.15-2.125H1.434v8.55H3.75v-2.496l1.864 2.497h2.772L6.22 48.78c0-.015 1.89-.388 1.89-2.126zm-2.275.428H3.738v-1.724h2.097v1.724zm8.98-4.028H12.72c-1.05 0-2.153.965-2.153 2.22v6.333h2.276v-1.67h2.042v1.67h2.317V45.26c0-1.24-1.117-2.206-2.386-2.206zm.07 4.594h-2.042v-2.29h2.042v2.29zm21.175-1.504h-2.235v-.938h3.904V43.08h-3.92c-1.38 0-2.317 1.09-2.317 2.195v.91c0 1.325 1.186 2.235 2.29 2.235h2.07v1.035H31.63v2.165h4.166c1.24 0 2.36-.938 2.36-2.07v-1.13c.012-1.366-1.077-2.276-2.098-2.276zm-9.326-3.063h-2.29v8.57h5.725v-2.29h-3.437v-6.28zm-7.063 8.555h2.29V43.07h-2.29v8.565z"/></g></svg>