<svg width="49" height="42" viewBox="0 0 49 42" xmlns="http://www.w3.org/2000/svg"><title>Slice 1</title><path d="M48.42 14.73c0-.062.064-.062.064-.126 0-.063.064-.127.064-.19v-.445c0-.065-.064-.13-.064-.19v-.256L41.69.634a.137.137 0 0 0-.127-.126c0-.064-.064-.064-.064-.127-.065-.062-.13-.062-.13-.125-.062 0-.062-.064-.126-.064-.063-.062-.127-.062-.19-.062-.064 0-.064-.064-.127-.064C40.8.064 40.674 0 40.61 0H7.974c-.508 0-.89.254-1.143.698L.29 13.588v.127c0 .064-.064.127-.064.19v.445c0 .064.064.127.064.19 0 .064.063.064.063.128 0 0 0 .063.064.063 0 .066.063.066.063.13 0 0 0 .063.064.063l22.986 25.78.19.19c.064.064.19.127.318.19h.063c.13.064.256.064.383.064s.254 0 .38-.063h.065c.127-.064.19-.064.317-.19l.19-.19 22.987-25.78.064-.065c0-.064.064-.064.064-.128-.127.065-.127.065-.127 0zm-30.542.7h12.954l-6.477 20.32-6.477-20.32zm.826-2.54l5.65-8.826 5.652 8.826H18.704zm26.478 0H34.578l5.78-9.08 4.824 9.08zM38.198 2.54l-5.906 9.27-5.905-9.27h11.81zm-15.938 0l-5.906 9.27-5.905-9.27h11.81zM8.163 3.62l5.906 9.27H3.463l4.698-9.27zm7.05 11.81l6.094 19.176L4.227 15.43H15.21zM27.34 34.606l6.095-19.176h11.05L27.34 34.606z" fill="#B3B3B3" fill-rule="evenodd"/></svg>