<svg width="24" height="57" viewBox="0 0 24 57" xmlns="http://www.w3.org/2000/svg"><title>Slice 1</title><g fill="#010101" fill-rule="evenodd"><ellipse cx="9.857" cy="8.905" rx="1.796" ry="1.796"/><ellipse cx="14.11" cy="3.393" rx="3.012" ry="3.012"/><path d="M22.047 1.183c-.914 0-1.655.74-1.655 1.656v14.067H3.6V2.837a1.655 1.655 0 0 0-3.31 0v42.14c0 6.4 5.187 11.59 11.586 11.59h.24c6.4 0 11.586-5.19 11.586-11.588V2.84c0-.916-.74-1.657-1.655-1.657zm-5.975 22.925h4.36v2.15h-4.36a1.076 1.076 0 0 1 0-2.15zm0 6.893h4.36v2.154h-4.36a1.088 1.088 0 0 1 0-2.176V31zm0 6.896h4.36v2.185h-4.36a1.088 1.088 0 0 1 0-2.176v-.008z"/></g></svg>