<svg width="81" height="63" viewBox="0 0 81 63" xmlns="http://www.w3.org/2000/svg"><title>Slice 1</title><g fill="#FFF" fill-rule="evenodd"><path d="M79.414 27.046H56.218c-.82 0-1.547.726-1.547 1.543v32.49c0 .815.73 1.542 1.55 1.542h23.195c.82 0 1.547-.727 1.547-1.543V28.59c0-.818-.727-1.544-1.546-1.544zM67.77 61.443c-.545 0-1-.454-1-1 0-.543.455-.997 1-.997.546 0 1 .454 1 .998 0 .545-.454 1-1 1zm11.19-3.177H56.58V30.222h22.38v28.044z"/><path d="M3.275 3.54h67.952v25.956h3.366V2.36c0-1-.82-1.815-1.82-1.815H2.457c-1 0-1.82.816-1.82 1.815v46.92c0 1 .82 1.816 1.82 1.816H32.11l-.908 5.627-3.275.09a.91.91 0 0 0-.91.91c0 .452.455.906.91.906h19.375a.91.91 0 0 0 .91-.91c0-.453-.454-.907-.91-.907H44.03l-.91-5.718h12.645V39.298H3.275V3.54z"/></g></svg>