<svg width="62" height="39" viewBox="0 0 62 39" xmlns="http://www.w3.org/2000/svg"><title>Slice 1</title><path d="M0 35.56a3.14 3.14 0 0 0 3.14 3.14h55.195a3.14 3.14 0 0 0 3.14-3.14V15.594H0V35.56zm42.215-11.52h14.62a1.02 1.02 0 0 1 0 2.04h-14.61a1.02 1.02 0 0 1 0-2.04h-.01zm-6.28 4.708h20.9a1.02 1.02 0 0 1 0 2.04h-20.89a1.02 1.02 0 0 1 0-2.04h-.01zm-31.752-4.71h7.59a1.02 1.02 0 0 1 0 2.04h-7.59a1.02 1.02 0 0 1 .008-2.04h-.006zM58.343.016H3.14A3.14 3.14 0 0 0 0 3.156v4.05h61.474v-4.05a3.14 3.14 0 0 0-3.13-3.14z" fill="#FFF" fill-rule="evenodd"/></svg>